<svg id="Layer_1" data-name="Layer 1" xmlns="http://www.w3.org/2000/svg" viewBox="0 0 207.19 207.19"><defs><style>.cls-1{fill:none;}.cls-1,.cls-2{stroke:#000;stroke-miterlimit:10;}.cls-2{fill:#fff;}.cls-3{font-size:10.9px;font-family:Helvetica-Bold, Helvetica;font-weight:700;}</style></defs><title>stamp</title><polygon points="206.38 103.59 196.05 111.69 204.83 121.44 193.26 127.63 200.21 138.76 187.73 142.82 192.62 155 179.63 156.83 182.33 169.67 169.22 169.22 169.66 182.33 156.82 179.63 155 192.62 142.82 187.73 138.76 200.21 127.63 193.26 121.44 204.83 111.69 196.05 103.59 206.38 95.5 196.05 85.75 204.83 79.56 193.26 68.43 200.21 64.37 187.73 52.19 192.62 50.36 179.63 37.52 182.33 37.97 169.22 24.86 169.66 27.56 156.82 14.57 155 19.46 142.82 6.98 138.76 13.93 127.63 2.35 121.44 11.14 111.69 0.81 103.59 11.14 95.5 2.35 85.75 13.93 79.56 6.99 68.43 19.46 64.37 14.57 52.19 27.56 50.36 24.86 37.52 37.97 37.97 37.52 24.86 50.36 27.56 52.19 14.57 64.37 19.46 68.43 6.98 79.56 13.93 85.75 2.35 95.5 11.14 103.59 0.81 111.69 11.14 121.44 2.35 127.63 13.93 138.76 6.99 142.82 19.46 155 14.57 156.83 27.56 169.67 24.86 169.22 37.97 182.33 37.52 179.63 50.36 192.62 52.19 187.73 64.37 200.21 68.43 193.26 79.56 204.83 85.75 196.05 95.5 206.38 103.59"/><polygon class="cls-1" points="206.38 103.59 196.05 111.69 204.83 121.44 193.26 127.63 200.21 138.76 187.73 142.82 192.62 155 179.63 156.83 182.33 169.67 169.22 169.22 169.66 182.33 156.82 179.63 155 192.62 142.82 187.73 138.76 200.21 127.63 193.26 121.44 204.83 111.69 196.05 103.59 206.38 95.5 196.05 85.75 204.83 79.56 193.26 68.43 200.21 64.37 187.73 52.19 192.62 50.36 179.63 37.52 182.33 37.97 169.22 24.86 169.66 27.56 156.82 14.57 155 19.46 142.82 6.98 138.76 13.93 127.63 2.35 121.44 11.14 111.69 0.81 103.59 11.14 95.5 2.35 85.75 13.93 79.56 6.99 68.43 19.46 64.37 14.57 52.19 27.56 50.36 24.86 37.52 37.97 37.97 37.52 24.86 50.36 27.56 52.19 14.57 64.37 19.46 68.43 6.98 79.56 13.93 85.75 2.35 95.5 11.14 103.59 0.81 111.69 11.14 121.44 2.35 127.63 13.93 138.76 6.99 142.82 19.46 155 14.57 156.83 27.56 169.67 24.86 169.22 37.97 182.33 37.52 179.63 50.36 192.62 52.19 187.73 64.37 200.21 68.43 193.26 79.56 204.83 85.75 196.05 95.5 206.38 103.59"/><circle class="cls-2" cx="103.59" cy="103.59" r="87.87"/><circle class="cls-1" cx="103.59" cy="103.59" r="69.45"/><circle class="cls-1" cx="103.59" cy="103.59" r="72.28"/><text class="cls-3" transform="translate(80.21 30.67) rotate(-16.17)">r</text><text class="cls-3" transform="matrix(0.98, -0.18, 0.18, 0.98, 86.77, 28.84)">n</text><text class="cls-3" transform="matrix(1, -0.06, 0.06, 1, 95.84, 27.38)">d</text><text class="cls-3" transform="matrix(1, 0.08, -0.08, 1, 104.99, 26.92)">m</text><text class="cls-3" transform="matrix(0.98, 0.2, -0.2, 0.98, 117.13, 28.24)">.</text><text class="cls-3" transform="translate(122.6 29.37) rotate(16.83)">n</text><text class="cls-3" transform="translate(131.35 32.17) rotate(23.76)">u</text><text class="cls-3" transform="translate(139.69 36.07) rotate(29.32)"> </text><text class="cls-3" transform="matrix(0.83, 0.56, -0.56, 0.83, 144.56, 38.91)">•</text><text class="cls-3" transform="matrix(0.78, 0.62, -0.62, 0.78, 149.82, 42.57)"> </text><text class="cls-3" transform="translate(154.19 46.14) rotate(42.74)">t</text><text class="cls-3" transform="translate(158.68 50.42) rotate(47.58)">r</text><text class="cls-3" transform="translate(163.2 55.47) rotate(53.53)">u</text><text class="cls-3" transform="translate(168.54 62.97) rotate(60.19)">e</text><text class="cls-3" transform="translate(172.66 70.53) rotate(65.52)"> </text><text class="cls-3" transform="translate(174.92 75.7) rotate(70.22)">r</text><text class="cls-3" transform="translate(177.14 82.13) rotate(76.04)">a</text><text class="cls-3" transform="translate(179.09 90.49) rotate(82.71)">n</text><text class="cls-3" transform="translate(180.07 99.62) rotate(89.07)">d</text><text class="cls-3" transform="translate(180.03 108.8) rotate(96.32)">o</text><text class="cls-3" transform="translate(178.96 117.88) rotate(104.32)">m</text><text class="cls-3" transform="matrix(-0.36, 0.93, -0.93, -0.36, 175.6, 129.65)"> </text><text class="cls-3" transform="translate(173.56 134.84) rotate(116.6)">n</text><text class="cls-3" transform="translate(169.31 142.99) rotate(123.48)">u</text><text class="cls-3" transform="matrix(-0.66, 0.75, -0.75, -0.66, 164.2, 150.59)">m</text><text class="cls-3" transform="translate(155.93 159.54) rotate(139.38)">b</text><text class="cls-3" transform="matrix(-0.83, 0.56, -0.56, -0.83, 148.85, 165.4)">e</text><text class="cls-3" transform="translate(141.62 170.07) rotate(151.77)">r</text><text class="cls-3" transform="matrix(-0.92, 0.4, -0.4, -0.92, 135.52, 173.19)"> </text><text class="cls-3" transform="translate(130.43 175.42) rotate(162.7)">w</text><text class="cls-3" transform="matrix(-0.99, 0.17, -0.17, -0.99, 119.87, 178.46)">e</text><text class="cls-3" transform="translate(111.38 179.81) rotate(176.71)">b</text><text class="cls-3" transform="translate(102.15 180.13) rotate(-177.82)"> </text><text class="cls-3" transform="translate(96.55 179.87) rotate(-172.53)">s</text><text class="cls-3" transform="translate(88.07 178.62) rotate(-166.08)">e</text><text class="cls-3" transform="translate(79.75 176.37) rotate(-160.27)">r</text><text class="cls-3" transform="matrix(-0.9, -0.43, 0.43, -0.9, 73.36, 173.99)">v</text><text class="cls-3" transform="translate(65.68 170.11) rotate(-149.13)">i</text><text class="cls-3" transform="matrix(-0.81, -0.59, 0.59, -0.81, 60.9, 167.19)">c</text><text class="cls-3" transform="matrix(-0.74, -0.68, 0.68, -0.74, 54.03, 161.99)">e</text><text class="cls-3" transform="translate(47.8 156.01) rotate(-132.1)"> </text><text class="cls-3" transform="matrix(-0.61, -0.79, 0.79, -0.61, 44.11, 151.79)">•</text><text class="cls-3" transform="translate(40.29 146.65) rotate(-123.14)"> </text><text class="cls-3" transform="translate(37.25 141.93) rotate(-117.58)">d</text><text class="cls-3" transform="matrix(-0.37, -0.93, 0.93, -0.37, 33.17, 133.66)">i</text><text class="cls-3" transform="translate(31.11 128.45) rotate(-106.41)">g</text><text class="cls-3" transform="matrix(-0.19, -0.98, 0.98, -0.19, 28.72, 119.57)">i</text><text class="cls-3" transform="translate(27.74 114.01) rotate(-96.39)">t</text><text class="cls-3" transform="translate(27.12 107.86) rotate(-90.93)">a</text><text class="cls-3" transform="translate(27.17 99.22) rotate(-85.65)">l</text><text class="cls-3" transform="matrix(0.15, -0.99, 0.99, 0.15, 27.69, 93.62)">l</text><text class="cls-3" transform="matrix(0.24, -0.97, 0.97, 0.24, 28.57, 88.07)">y</text><text class="cls-3" transform="translate(30.83 79.76) rotate(-70.73)"> </text><text class="cls-3" transform="translate(32.73 74.48) rotate(-65.37)">s</text><text class="cls-3" transform="translate(36.5 66.71) rotate(-60.01)">i</text><text class="cls-3" transform="translate(39.33 61.88) rotate(-54.47)">g</text><text class="cls-3" transform="translate(44.78 54.51) rotate(-47.65)">n</text><text class="cls-3" transform="matrix(0.75, -0.66, 0.66, 0.75, 51.09, 47.83)">e</text><text class="cls-3" transform="matrix(0.83, -0.57, 0.57, 0.83, 57.65, 42.29)">d</text><text class="cls-3" transform="translate(65.38 37.25) rotate(-28.86)"> </text><text class="cls-3" transform="translate(70.36 34.61) rotate(-24.33)">•</text><text class="cls-3" transform="translate(76.24 32.08) rotate(-19.8)"> </text></svg>