<svg id="Layer_1" data-name="Layer 1" xmlns="http://www.w3.org/2000/svg" viewBox="0 0 207.19 207.19"><title>stamp2</title><polygon points="206.38 103.59 196.05 111.69 204.83 121.44 193.26 127.63 200.21 138.76 187.73 142.82 192.62 155 179.63 156.83 182.33 169.67 169.22 169.22 169.66 182.33 156.82 179.63 155 192.62 142.82 187.73 138.76 200.21 127.63 193.26 121.44 204.83 111.69 196.05 103.59 206.38 95.5 196.05 85.75 204.83 79.56 193.26 68.43 200.21 64.37 187.73 52.19 192.62 50.36 179.63 37.52 182.33 37.97 169.22 24.86 169.66 27.56 156.82 14.57 155 19.46 142.82 6.98 138.76 13.93 127.63 2.35 121.44 11.14 111.69 0.81 103.59 11.14 95.5 2.35 85.75 13.93 79.56 6.99 68.43 19.46 64.37 14.57 52.19 27.56 50.36 24.86 37.52 37.97 37.97 37.52 24.86 50.36 27.56 52.19 14.57 64.37 19.46 68.43 6.98 79.56 13.93 85.75 2.35 95.5 11.14 103.59 0.81 111.69 11.14 121.44 2.35 127.63 13.93 138.76 6.99 142.82 19.46 155 14.57 156.83 27.56 169.67 24.86 169.22 37.97 182.33 37.52 179.63 50.36 192.62 52.19 187.73 64.37 200.21 68.43 193.26 79.56 204.83 85.75 196.05 95.5 206.38 103.59"/><polygon points="206.38 103.59 196.05 111.69 204.83 121.44 193.26 127.63 200.21 138.76 187.73 142.82 192.62 155 179.63 156.83 182.33 169.67 169.22 169.22 169.66 182.33 156.82 179.63 155 192.62 142.82 187.73 138.76 200.21 127.63 193.26 121.44 204.83 111.69 196.05 103.59 206.38 95.5 196.05 85.75 204.83 79.56 193.26 68.43 200.21 64.37 187.73 52.19 192.62 50.36 179.63 37.52 182.33 37.97 169.22 24.86 169.66 27.56 156.82 14.57 155 19.46 142.82 6.98 138.76 13.93 127.63 2.35 121.44 11.14 111.69 0.81 103.59 11.14 95.5 2.35 85.75 13.93 79.56 6.99 68.43 19.46 64.37 14.57 52.19 27.56 50.36 24.86 37.52 37.97 37.97 37.52 24.86 50.36 27.56 52.19 14.57 64.37 19.46 68.43 6.98 79.56 13.93 85.75 2.35 95.5 11.14 103.59 0.81 111.69 11.14 121.44 2.35 127.63 13.93 138.76 6.99 142.82 19.46 155 14.57 156.83 27.56 169.67 24.86 169.22 37.97 182.33 37.52 179.63 50.36 192.62 52.19 187.73 64.37 200.21 68.43 193.26 79.56 204.83 85.75 196.05 95.5 206.38 103.59" style="fill:none;stroke:#000;stroke-miterlimit:10"/><circle cx="103.59" cy="103.59" r="87.87" style="fill:#fff;stroke:#000;stroke-miterlimit:10"/><circle cx="103.59" cy="103.59" r="69.45" style="fill:none;stroke:#000;stroke-miterlimit:10"/><circle cx="103.59" cy="103.59" r="72.28" style="fill:none;stroke:#000;stroke-miterlimit:10"/><path d="M90.83,41l-1.77-6,1.11-.33.25.85a2,2,0,0,1,.45-.93,1.3,1.3,0,0,1,.6-.38l.08,0,.1,0L92,35.37H91.7a1.91,1.91,0,0,0-.33.06,1,1,0,0,0-.44.26,1.3,1.3,0,0,0-.28.59l1.29,4.37Z" transform="translate(-9.79 -9.79)"/><path d="M96.18,39.5l-1.26-6.11,1.13-.24.12.6a3.41,3.41,0,0,1,.58-.62,1.68,1.68,0,0,1,.77-.37.81.81,0,0,1,.61.07,1.08,1.08,0,0,1,.37.42,2.27,2.27,0,0,1,.2.57l1,5L98.59,39l-1-4.62a1.34,1.34,0,0,0-.2-.49.41.41,0,0,0-.43-.1,1,1,0,0,0-.38.19,2.94,2.94,0,0,0-.34.36l1,4.93Z" transform="translate(-9.79 -9.79)"/><path d="M104.34,38.18a1.33,1.33,0,0,1-1.24-.44,3.72,3.72,0,0,1-.61-1.9l-.14-1.2a7.53,7.53,0,0,1,0-1.33,1.93,1.93,0,0,1,.34-1,1.22,1.22,0,0,1,.91-.48,1.16,1.16,0,0,1,.59.08,1.92,1.92,0,0,1,.5.29l-.33-2.89,1.15-.13,1,8.69-1.15.13,0-.4a1.72,1.72,0,0,1-.41.4A1.07,1.07,0,0,1,104.34,38.18Zm.18-.93a1.62,1.62,0,0,0,.34-.1,1.41,1.41,0,0,0,.34-.22l-.46-4.07a1.94,1.94,0,0,0-.36-.15.89.89,0,0,0-.4,0,.52.52,0,0,0-.49.44,2.55,2.55,0,0,0,0,.93l.2,1.75a5.21,5.21,0,0,0,.14.78,1.16,1.16,0,0,0,.26.52A.53.53,0,0,0,104.52,37.25Z" transform="translate(-9.79 -9.79)"/><path d="M109.68,37.61l-.1-6.24,1.07,0V32a2.17,2.17,0,0,1,.69-.54,1.9,1.9,0,0,1,.77-.19,1.17,1.17,0,0,1,.62.16,1,1,0,0,1,.41.61,2.26,2.26,0,0,1,.72-.61,1.94,1.94,0,0,1,.82-.2,1,1,0,0,1,.55.14,1,1,0,0,1,.41.45,2.15,2.15,0,0,1,.17.84l.07,4.9-1,0-.08-4.83a1,1,0,0,0-.16-.61.53.53,0,0,0-.39-.15,1.1,1.1,0,0,0-.5.15,1.67,1.67,0,0,0-.47.38v.18l.07,4.9-1,0-.08-4.83a.92.92,0,0,0-.16-.6.46.46,0,0,0-.39-.15,1,1,0,0,0-.49.14,1.87,1.87,0,0,0-.48.38l.08,5.09Z" transform="translate(-9.79 -9.79)"/><path d="M119.07,37.77l.1-1.28,1.15.09-.1,1.28Z" transform="translate(-9.79 -9.79)"/><path d="M123.26,38.18l.95-6.17,1.14.17-.09.61a3.34,3.34,0,0,1,.75-.39,1.77,1.77,0,0,1,.86-.07.79.79,0,0,1,.54.28,1,1,0,0,1,.2.52,2,2,0,0,1,0,.6l-.77,5-1.14-.18.72-4.66a1.12,1.12,0,0,0,0-.53c0-.13-.17-.21-.37-.24a.76.76,0,0,0-.41.05,2.27,2.27,0,0,0-.45.21l-.76,5Z" transform="translate(-9.79 -9.79)"/><path d="M130.82,39.66a.79.79,0,0,1-.51-.33,1.1,1.1,0,0,1-.16-.54,2.46,2.46,0,0,1,.07-.6l1.21-4.9,1.13.28-1.14,4.57a1.24,1.24,0,0,0,0,.53c0,.14.15.23.34.28a.86.86,0,0,0,.42,0,2.54,2.54,0,0,0,.46-.17l1.21-4.89,1.12.28-1.5,6.06-1.12-.28.15-.6a3,3,0,0,1-.79.32A1.79,1.79,0,0,1,130.82,39.66Z" transform="translate(-9.79 -9.79)"/><path d="M143.32,40.51a1.36,1.36,0,0,1-.55-.39,1.08,1.08,0,0,1-.21-.58,1.37,1.37,0,0,1,.12-.67,1.4,1.4,0,0,1,.39-.56,1,1,0,0,1,.55-.25,1.37,1.37,0,0,1,.67.1,1.52,1.52,0,0,1,.56.4,1.07,1.07,0,0,1,.21.57,1.46,1.46,0,0,1-.11.67,1.43,1.43,0,0,1-.4.57,1,1,0,0,1-.55.25A1.33,1.33,0,0,1,143.32,40.51Z" transform="translate(-9.79 -9.79)"/><path d="M151.94,48.18a1.53,1.53,0,0,1-.59-.56,1.06,1.06,0,0,1-.11-.66,2.24,2.24,0,0,1,.28-.75l2-3.52-.57-.33.39-.66L154,42l.91-1.58,1,.58L155,42.61l.87.5-.38.67-.87-.51-2,3.45a.84.84,0,0,0-.16.52c0,.13.12.25.31.36l.18.09.2.09-.43.74a3.17,3.17,0,0,1-.37-.16Z" transform="translate(-9.79 -9.79)"/><path d="M155.24,50.14,158.76,45l1,.66-.5.73a1.94,1.94,0,0,1,1-.24,1.38,1.38,0,0,1,.68.23l.07,0,.08.07-.72,1.05a1.41,1.41,0,0,0-.2-.24,1.16,1.16,0,0,0-.26-.23.9.9,0,0,0-.47-.17,1.19,1.19,0,0,0-.63.15l-2.58,3.76Z" transform="translate(-9.79 -9.79)"/><path d="M160.39,54a.78.78,0,0,1-.33-.51,1.1,1.1,0,0,1,.09-.56,2.25,2.25,0,0,1,.31-.51l3.18-3.92.9.72-3,3.66a1.14,1.14,0,0,0-.25.47.4.4,0,0,0,.19.4.87.87,0,0,0,.39.16,2.52,2.52,0,0,0,.48,0L165.56,50l.89.73-3.93,4.84-.9-.73.39-.47a3.5,3.5,0,0,1-.85,0A1.67,1.67,0,0,1,160.39,54Z" transform="translate(-9.79 -9.79)"/><path d="M166.14,59a1.93,1.93,0,0,1-.61-1,1.46,1.46,0,0,1,.19-1,5.16,5.16,0,0,1,.83-1.09l1-1a4.69,4.69,0,0,1,1.08-.88,1.42,1.42,0,0,1,1-.2,1.88,1.88,0,0,1,1,.58,1.72,1.72,0,0,1,.61,1,1.64,1.64,0,0,1-.3,1,8.33,8.33,0,0,1-.93,1.13l-.36.37-1.77-1.72-.87.9a2.73,2.73,0,0,0-.38.49.7.7,0,0,0-.08.41.82.82,0,0,0,.21.37.56.56,0,0,0,.37.18.65.65,0,0,0,.38-.13,3,3,0,0,0,.42-.35l.26-.28.81.79-.17.17a2.38,2.38,0,0,1-1.31.78A1.59,1.59,0,0,1,166.14,59Zm2.16-3.22.95.93.39-.41a3,3,0,0,0,.43-.5.72.72,0,0,0,.15-.41A.59.59,0,0,0,170,55a.61.61,0,0,0-.4-.2.73.73,0,0,0-.45.17,4.72,4.72,0,0,0-.63.57Z" transform="translate(-9.79 -9.79)"/><path d="M172.64,66.05l4.93-3.83.71.91-.7.55a2.18,2.18,0,0,1,1,.07,1.48,1.48,0,0,1,.57.43l0,.06a.35.35,0,0,1,.06.09l-1,.78a1.53,1.53,0,0,0-.11-.29,1.75,1.75,0,0,0-.18-.29.93.93,0,0,0-.4-.31,1.29,1.29,0,0,0-.65,0L173.34,67Z" transform="translate(-9.79 -9.79)"/><path d="M176.5,71.49a1,1,0,0,1-.18-.66,1.6,1.6,0,0,1,.21-.66,1.62,1.62,0,0,1,.49-.52,2.21,2.21,0,0,1,.93-.37,2.07,2.07,0,0,1,.86.07,3.72,3.72,0,0,1,.83.4l.86.57.37-.24a4,4,0,0,0,.5-.38.62.62,0,0,0,.21-.35.58.58,0,0,0-.12-.41.57.57,0,0,0-.3-.26.66.66,0,0,0-.37,0,1.69,1.69,0,0,0-.43.21l-.26.17-.59-1a2.23,2.23,0,0,1,1.54-.44,1.81,1.81,0,0,1,1.18.9,1.53,1.53,0,0,1,.29,1.38,2.3,2.3,0,0,1-1,1.13l-2.39,1.56-.46.32-.4.31-.33.29-.58-.89.32-.31L178,72a1.77,1.77,0,0,1-.8,0A1.16,1.16,0,0,1,176.5,71.49Zm1.08-.16a.63.63,0,0,0,.26.22,2.07,2.07,0,0,0,.33.1l.26,0,1.48-1c-.18-.1-.36-.18-.53-.26a2.75,2.75,0,0,0-.5-.18,1.47,1.47,0,0,0-.47,0,1.19,1.19,0,0,0-.45.17,1.07,1.07,0,0,0-.43.45A.48.48,0,0,0,177.58,71.33Z" transform="translate(-9.79 -9.79)"/><path d="M179.49,76.17,185,73.23l.54,1-.54.29a3.6,3.6,0,0,1,.76.38,1.79,1.79,0,0,1,.58.64.79.79,0,0,1,.1.6,1,1,0,0,1-.3.47,2.47,2.47,0,0,1-.49.36l-4.46,2.37-.54-1,4.16-2.22a1.06,1.06,0,0,0,.42-.33.42.42,0,0,0,0-.44.91.91,0,0,0-.29-.3,2.93,2.93,0,0,0-.43-.23L180,77.19Z" transform="translate(-9.79 -9.79)"/><path d="M183.06,83.63a1.35,1.35,0,0,1,.07-1.31,3.72,3.72,0,0,1,1.66-1.12l1.11-.47a6.85,6.85,0,0,1,1.27-.4,1.92,1.92,0,0,1,1.07,0,1.22,1.22,0,0,1,.72.75,1.16,1.16,0,0,1,.09.58,1.84,1.84,0,0,1-.14.56l2.68-1.13.45,1.07L184,85.59l-.45-1.07.37-.15a1.74,1.74,0,0,1-.5-.28A1.07,1.07,0,0,1,183.06,83.63Zm.95-.08a1,1,0,0,0,.19.29,1.18,1.18,0,0,0,.31.27l3.77-1.59a2.33,2.33,0,0,0,0-.38.92.92,0,0,0-.08-.4.53.53,0,0,0-.56-.35,2.59,2.59,0,0,0-.91.23l-1.62.68a6.5,6.5,0,0,0-.7.35,1.12,1.12,0,0,0-.43.4A.52.52,0,0,0,184,83.55Z" transform="translate(-9.79 -9.79)"/><path d="M185.55,90.31a1.83,1.83,0,0,1-.06-1.12,1.47,1.47,0,0,1,.58-.78,3.76,3.76,0,0,1,1.12-.53l1.72-.56a4.11,4.11,0,0,1,1.22-.21,1.48,1.48,0,0,1,.93.3,2.23,2.23,0,0,1,.66,2.07,1.44,1.44,0,0,1-.59.78,3.82,3.82,0,0,1-1.11.53l-1.73.55a3.76,3.76,0,0,1-1.21.21,1.47,1.47,0,0,1-.93-.29A1.82,1.82,0,0,1,185.55,90.31Zm.81-.26a.52.52,0,0,0,.33.39,1,1,0,0,0,.54,0,5.63,5.63,0,0,0,.64-.18l1.86-.59a6.48,6.48,0,0,0,.63-.23,1,1,0,0,0,.44-.31.52.52,0,0,0,0-.51.54.54,0,0,0-.34-.39,1,1,0,0,0-.54,0,6.12,6.12,0,0,0-.64.17l-1.86.6c-.22.07-.43.15-.63.23a1,1,0,0,0-.44.31A.55.55,0,0,0,186.36,90.05Z" transform="translate(-9.79 -9.79)"/><path d="M187,95l6.11-1.25.22,1-.58.12a2.31,2.31,0,0,1,.66.57,1.9,1.9,0,0,1,.32.73,1.15,1.15,0,0,1,0,.64,1,1,0,0,1-.53.51,2.14,2.14,0,0,1,.74.6,2,2,0,0,1,.35.77,1.1,1.1,0,0,1,0,.57,1.07,1.07,0,0,1-.38.48,2,2,0,0,1-.79.32l-4.8,1-.21-1,4.73-1a.88.88,0,0,0,.56-.27.5.5,0,0,0,.08-.42,1.17,1.17,0,0,0-.23-.46,1.94,1.94,0,0,0-.46-.39l-.09,0-.09,0-4.81,1-.21-1,4.73-1a.94.94,0,0,0,.57-.27.51.51,0,0,0,.07-.41,1.05,1.05,0,0,0-.23-.46,1.76,1.76,0,0,0-.46-.39l-5,1Z" transform="translate(-9.79 -9.79)"/><path d="M189.1,108.85l6.24-.22,0,1.15-.61,0a3.43,3.43,0,0,1,.52.67,1.77,1.77,0,0,1,.23.82.82.82,0,0,1-.17.59,1.09,1.09,0,0,1-.48.3,2.35,2.35,0,0,1-.59.1l-5.05.18,0-1.16,4.72-.16a1.12,1.12,0,0,0,.51-.12.41.41,0,0,0,.17-.41.82.82,0,0,0-.13-.4,2.63,2.63,0,0,0-.29-.39l-5,.18Z" transform="translate(-9.79 -9.79)"/><path d="M189.07,116.57a.78.78,0,0,1,.22-.56,1,1,0,0,1,.5-.26,2.43,2.43,0,0,1,.6,0l5.05.27-.06,1.15-4.71-.25a1.17,1.17,0,0,0-.53.07.45.45,0,0,0-.21.39.91.91,0,0,0,.1.41,3.09,3.09,0,0,0,.25.42l5,.27-.06,1.15-6.24-.33.06-1.15.62,0a2.79,2.79,0,0,1-.46-.71A1.66,1.66,0,0,1,189.07,116.57Z" transform="translate(-9.79 -9.79)"/><path d="M188.73,122.5l6.17,1-.17,1.06-.59-.09a2,2,0,0,1,.41.76,1.81,1.81,0,0,1,0,.8,1.16,1.16,0,0,1-.27.58,1,1,0,0,1-.67.3,2.28,2.28,0,0,1,.48.81,1.88,1.88,0,0,1,.05.85,1.11,1.11,0,0,1-.23.52,1.05,1.05,0,0,1-.52.32,2,2,0,0,1-.85,0l-4.84-.78.16-1,4.77.77a1,1,0,0,0,.63-.05.48.48,0,0,0,.21-.36,1.06,1.06,0,0,0-.05-.52,1.85,1.85,0,0,0-.29-.53H193l-4.84-.79.16-1,4.77.77a.92.92,0,0,0,.63,0,.51.51,0,0,0,.21-.36,1,1,0,0,0-.05-.51,1.85,1.85,0,0,0-.29-.53l-5-.81Z" transform="translate(-9.79 -9.79)"/><path d="M186.33,133.86a1.07,1.07,0,0,1,.32-.53,2.21,2.21,0,0,1,.48-.34l-.44-.12.31-1.12,8.43,2.32-.3,1.11-2.9-.79a1.93,1.93,0,0,1,.27.58,1.33,1.33,0,0,1,0,.71,1.09,1.09,0,0,1-.45.68,1.71,1.71,0,0,1-.72.24,3.55,3.55,0,0,1-.8,0,5.72,5.72,0,0,1-.66-.14l-1.46-.4a5.58,5.58,0,0,1-1.17-.45,2,2,0,0,1-.79-.7A1.22,1.22,0,0,1,186.33,133.86Zm.94,0a.44.44,0,0,0,.09.47,1.51,1.51,0,0,0,.54.32c.24.08.5.17.79.25l1.46.4a5.33,5.33,0,0,0,.71.15,1.21,1.21,0,0,0,.55,0,.5.5,0,0,0,.3-.38.93.93,0,0,0,0-.44,1.6,1.6,0,0,0-.11-.39l-3.87-1.06a1.11,1.11,0,0,0-.28.29A1.3,1.3,0,0,0,187.27,133.88Z" transform="translate(-9.79 -9.79)"/><path d="M184.34,140a1.9,1.9,0,0,1,.66-1,1.53,1.53,0,0,1,1-.23,5.42,5.42,0,0,1,1.33.34l1.34.5a4.67,4.67,0,0,1,1.23.63,1.51,1.51,0,0,1,.59.82,2,2,0,0,1-.13,1.15,1.73,1.73,0,0,1-.71,1,1.64,1.64,0,0,1-1,.14,7.84,7.84,0,0,1-1.41-.41l-.48-.17.86-2.31-1.17-.44a2.17,2.17,0,0,0-.6-.15.66.66,0,0,0-.41.09.69.69,0,0,0-.25.34.54.54,0,0,0,0,.41.64.64,0,0,0,.27.3,2.8,2.8,0,0,0,.49.24l.36.13-.39,1-.23-.08a2.47,2.47,0,0,1-1.24-.89A1.56,1.56,0,0,1,184.34,140Zm3.81.69-.47,1.24.53.2a4.7,4.7,0,0,0,.63.19.67.67,0,0,0,.43,0,.57.57,0,0,0,.28-.35.6.6,0,0,0,0-.45.72.72,0,0,0-.34-.33,4.26,4.26,0,0,0-.78-.35Z" transform="translate(-9.79 -9.79)"/><path d="M182.54,144.55l5.66,2.65-.49,1-.81-.37a2.08,2.08,0,0,1,.4.95,1.5,1.5,0,0,1-.11.71l0,.07-.05.09-1.16-.54a1.6,1.6,0,0,0,.21-.23,1.75,1.75,0,0,0,.18-.29,1,1,0,0,0,.1-.5,1.33,1.33,0,0,0-.25-.6l-4.13-1.94Z" transform="translate(-9.79 -9.79)"/><path d="M177.39,154.11l5.74,2.66-.53.78-4.18-2,3.35,3.26-.49.74L177,157.65l3.44,3.09-.53.79-4.6-4.34.54-.81,4.13,1.75L176.81,155Z" transform="translate(-9.79 -9.79)"/><path d="M171.75,161.66a1.92,1.92,0,0,1,.95-.69,1.42,1.42,0,0,1,1,.11,4.65,4.65,0,0,1,1.15.75l1.1.9a4.89,4.89,0,0,1,1,1,1.44,1.44,0,0,1,.28,1,1.92,1.92,0,0,1-.49,1,1.84,1.84,0,0,1-1,.69,1.63,1.63,0,0,1-1-.22,8.36,8.36,0,0,1-1.2-.84l-.39-.32,1.57-1.9-1-.8a2.18,2.18,0,0,0-.52-.34.68.68,0,0,0-.41-.05.69.69,0,0,0-.35.24.53.53,0,0,0-.15.38.64.64,0,0,0,.16.37,2.38,2.38,0,0,0,.39.39l.29.24-.72.86-.18-.15a2.46,2.46,0,0,1-.89-1.25A1.6,1.6,0,0,1,171.75,161.66Zm3.38,1.9-.84,1,.43.36a5.07,5.07,0,0,0,.53.38.71.71,0,0,0,.42.12.58.58,0,0,0,.38-.24.67.67,0,0,0,.17-.42.81.81,0,0,0-.21-.43,5.31,5.31,0,0,0-.62-.58Z" transform="translate(-9.79 -9.79)"/><path d="M167,166.93a1.14,1.14,0,0,1,.54-.31,2,2,0,0,1,.59-.06l-.32-.32.81-.83,6.22,6.16-.81.82-2.14-2.11a1.92,1.92,0,0,1,0,.63,1.25,1.25,0,0,1-.36.61,1.16,1.16,0,0,1-.73.38,1.68,1.68,0,0,1-.75-.15,3,3,0,0,1-.68-.42,5.08,5.08,0,0,1-.51-.44l-1.08-1.06a6.34,6.34,0,0,1-.79-1,2,2,0,0,1-.35-1A1.2,1.2,0,0,1,167,166.93Zm.81.47a.44.44,0,0,0-.14.46,1.32,1.32,0,0,0,.31.54c.16.19.35.39.57.61l1.07,1.06a6.94,6.94,0,0,0,.54.47,1.08,1.08,0,0,0,.5.24.48.48,0,0,0,.45-.18,1,1,0,0,0,.24-.37,3.24,3.24,0,0,0,.09-.4L168.55,167a1.64,1.64,0,0,0-.4.12A1.33,1.33,0,0,0,167.77,167.4Z" transform="translate(-9.79 -9.79)"/><path d="M158.85,174a1.64,1.64,0,0,1,1.28-.36,2,2,0,0,1,1.18.7l-.59.81a2.18,2.18,0,0,0-.77-.54.7.7,0,0,0-.66.13.57.57,0,0,0-.27.43.66.66,0,0,0,.16.48.87.87,0,0,0,.38.31,1.56,1.56,0,0,0,.58.12l1.41.1a2.79,2.79,0,0,1,.81.17,1.58,1.58,0,0,1,.71.58,1.67,1.67,0,0,1,.35.79,1.31,1.31,0,0,1-.14.75,1.94,1.94,0,0,1-.57.66,1.45,1.45,0,0,1-1.2.3,2.11,2.11,0,0,1-1.06-.66l.45-.7a2.44,2.44,0,0,0,.45.37.82.82,0,0,0,.41.16.57.57,0,0,0,.4-.13.59.59,0,0,0,.25-.42.71.71,0,0,0-.39-.67.81.81,0,0,0-.37-.1l-1.5-.15a4.17,4.17,0,0,1-.6-.1,2.26,2.26,0,0,1-.59-.23,2,2,0,0,1-.89-1.32,1.42,1.42,0,0,1,.17-.8A2.14,2.14,0,0,1,158.85,174Z" transform="translate(-9.79 -9.79)"/><path d="M153.58,177.6a1.9,1.9,0,0,1,1.11-.36,1.53,1.53,0,0,1,.92.41,5.42,5.42,0,0,1,.86,1.08l.76,1.21a4.76,4.76,0,0,1,.59,1.25,1.45,1.45,0,0,1,0,1,2,2,0,0,1-.8.83,1.75,1.75,0,0,1-1.16.34,1.55,1.55,0,0,1-.91-.53,7.72,7.72,0,0,1-.88-1.17l-.27-.43,2.09-1.31-.67-1.06a1.9,1.9,0,0,0-.39-.49.57.57,0,0,0-.37-.17.67.67,0,0,0-.41.12.61.61,0,0,0-.27.31.64.64,0,0,0,0,.4,2.53,2.53,0,0,0,.25.49l.2.32-1,.59-.13-.2a2.49,2.49,0,0,1-.45-1.46A1.58,1.58,0,0,1,153.58,177.6Zm2.61,2.86-1.13.7.3.48a3.85,3.85,0,0,0,.39.53.64.64,0,0,0,.36.24.58.58,0,0,0,.43-.11.66.66,0,0,0,.3-.33.79.79,0,0,0-.07-.48,5.83,5.83,0,0,0-.4-.75Z" transform="translate(-9.79 -9.79)"/><path d="M149.33,180.18l2.89,5.54-1,.53-.41-.79a2,2,0,0,1-.26,1,1.28,1.28,0,0,1-.52.49l-.07,0-.1,0-.59-1.13.31-.06a1.24,1.24,0,0,0,.32-.12,1,1,0,0,0,.38-.34,1.36,1.36,0,0,0,.16-.62l-2.1-4Z" transform="translate(-9.79 -9.79)"/><path d="M143.61,183l3.57,5.27-1.07.45-2.67-4.32,1.25,4.93-1,.44-1.35-6.21Z" transform="translate(-9.79 -9.79)"/><path d="M138.45,185l2,5.91-1.09.37-2-5.91Zm2.31,6.78.39,1.15-1.09.37-.39-1.14Z" transform="translate(-9.79 -9.79)"/><path d="M132.47,186.7a1.83,1.83,0,0,1,1.21,0,1.49,1.49,0,0,1,.73.7,5.88,5.88,0,0,1,.46,1.24l.36,1.38a5.58,5.58,0,0,1,.2,1.34,1.53,1.53,0,0,1-.3,1,1.88,1.88,0,0,1-1,.58A2.11,2.11,0,0,1,133,193a1.17,1.17,0,0,1-.67-.51,3.71,3.71,0,0,1-.41-1l-.09-.36,1-.26.09.36a2.88,2.88,0,0,0,.22.62.53.53,0,0,0,.27.28.65.65,0,0,0,.42,0,.63.63,0,0,0,.38-.24.67.67,0,0,0,.08-.47,5.23,5.23,0,0,0-.16-.82l-.49-1.91a2.62,2.62,0,0,0-.42-1,.69.69,0,0,0-1,.11.69.69,0,0,0-.07.42,4.65,4.65,0,0,0,.1.55l.13.49-1,.26-.11-.41a3.4,3.4,0,0,1-.13-1.09,1.27,1.27,0,0,1,.32-.8A2,2,0,0,1,132.47,186.7Z" transform="translate(-9.79 -9.79)"/><path d="M126.09,188.07a1.87,1.87,0,0,1,1.16.09,1.43,1.43,0,0,1,.69.74,5,5,0,0,1,.38,1.32l.24,1.4a4.9,4.9,0,0,1,.07,1.39,1.44,1.44,0,0,1-.42.92,1.9,1.9,0,0,1-1.05.46,1.74,1.74,0,0,1-1.2-.12,1.56,1.56,0,0,1-.64-.84A7.07,7.07,0,0,1,125,192l-.09-.5,2.43-.41-.21-1.23a2.29,2.29,0,0,0-.17-.6.66.66,0,0,0-.28-.31.72.72,0,0,0-.42,0,.57.57,0,0,0-.37.19.69.69,0,0,0-.12.38,2.79,2.79,0,0,0,0,.55l.07.37-1.11.19,0-.24a2.33,2.33,0,0,1,.15-1.52A1.56,1.56,0,0,1,126.09,188.07Zm1.31,3.64-1.3.22.09.56a3.66,3.66,0,0,0,.15.63.79.79,0,0,0,.24.37.63.63,0,0,0,.45.06.66.66,0,0,0,.4-.2.74.74,0,0,0,.12-.46,5.46,5.46,0,0,0-.09-.85Z" transform="translate(-9.79 -9.79)"/><path d="M115.3,192.13a1.24,1.24,0,0,1,.66.14,1.14,1.14,0,0,1,.43.44,1.53,1.53,0,0,1,.16.66,1.59,1.59,0,0,1-.13.68,1,1,0,0,1-.41.44,1.42,1.42,0,0,1-1.33,0,1,1,0,0,1-.42-.43,1.4,1.4,0,0,1-.16-.66,1.36,1.36,0,0,1,.13-.68,1,1,0,0,1,.4-.45A1.35,1.35,0,0,1,115.3,192.13Z" transform="translate(-9.79 -9.79)"/><path d="M104.53,188.61a1.65,1.65,0,0,1,1.17.62,2.07,2.07,0,0,1,.38,1.33l-1,.17a2.1,2.1,0,0,0-.19-.91.67.67,0,0,0-.57-.37.65.65,0,0,0-.49.12.69.69,0,0,0-.21.46.93.93,0,0,0,.06.5,1.59,1.59,0,0,0,.33.48l1,1a3.06,3.06,0,0,1,.47.68,1.59,1.59,0,0,1,.11.92,1.54,1.54,0,0,1-.29.81,1.28,1.28,0,0,1-.62.45,2,2,0,0,1-.86.08,1.42,1.42,0,0,1-1.08-.61,2,2,0,0,1-.31-1.21l.81-.2a2.52,2.52,0,0,0,.06.58.88.88,0,0,0,.19.4.56.56,0,0,0,.38.19.58.58,0,0,0,.47-.14.64.64,0,0,0,.22-.43.89.89,0,0,0,0-.32,1.16,1.16,0,0,0-.21-.34l-1-1.13c-.13-.15-.25-.32-.37-.49a2.12,2.12,0,0,1-.26-.57,1.7,1.7,0,0,1-.05-.72,1.67,1.67,0,0,1,.32-.85,1.29,1.29,0,0,1,.66-.46A2.12,2.12,0,0,1,104.53,188.61Z" transform="translate(-9.79 -9.79)"/><path d="M99.86,188,98.1,196.6,97,196.37l.63-3.09a3.17,3.17,0,0,1-.79.37,1.78,1.78,0,0,1-.89,0,.79.79,0,0,1-.52-.31,1,1,0,0,1-.17-.53,2,2,0,0,1,0-.6l1-4.95,1.13.23-.94,4.62a1.06,1.06,0,0,0,0,.53c0,.14.15.22.35.26a.84.84,0,0,0,.44,0,2.14,2.14,0,0,0,.47-.2l1-4.91Z" transform="translate(-9.79 -9.79)"/><path d="M92.13,186.11a1.1,1.1,0,0,1,.56.38,1.5,1.5,0,0,1,.27.65,1.55,1.55,0,0,1,0,.71,2.27,2.27,0,0,1-.47.89,1.89,1.89,0,0,1-.7.49,3.49,3.49,0,0,1-.9.23c-.32,0-.66.09-1,.11l-.12.43a3,3,0,0,0-.14.61.66.66,0,0,0,.06.41.58.58,0,0,0,.35.23.61.61,0,0,0,.4,0,.59.59,0,0,0,.29-.23,1.56,1.56,0,0,0,.2-.43l.09-.3,1.08.37a2.26,2.26,0,0,1-.89,1.32,1.83,1.83,0,0,1-1.49.07,1.56,1.56,0,0,1-1.11-.87,2.32,2.32,0,0,1,0-1.51l.82-2.73c0-.19.1-.37.14-.55s.08-.34.11-.49,0-.3.08-.43l1,.3c0,.12,0,.27,0,.44s0,.34-.07.48a1.64,1.64,0,0,1,.6-.53A1.06,1.06,0,0,1,92.13,186.11Zm-.72.82a.5.5,0,0,0-.34,0,1.27,1.27,0,0,0-.32.13,1.16,1.16,0,0,0-.21.15L90,188.9l.57-.14a2.38,2.38,0,0,0,.49-.19,1.29,1.29,0,0,0,.38-.28,1.11,1.11,0,0,0,.23-.43,1,1,0,0,0,0-.61A.46.46,0,0,0,91.41,186.93Z" transform="translate(-9.79 -9.79)"/><path d="M85,183.61a2.26,2.26,0,0,1,1,.75,1.65,1.65,0,0,1,.28,1.06,4,4,0,0,1-.32,1.33l-1.07-.43a4.71,4.71,0,0,0,.22-.73,1.16,1.16,0,0,0,0-.67.8.8,0,0,0-.51-.47.78.78,0,0,0-.73,0,1.53,1.53,0,0,0-.52.59,10,10,0,0,0-.45,1,7.66,7.66,0,0,0-.32,1,1.23,1.23,0,0,0,0,.69.85.85,0,0,0,.52.45.84.84,0,0,0,.64,0,1.26,1.26,0,0,0,.53-.33l.91.37-1.75,4.35-3.5-1.42.44-1.07,2.52,1,1-2.21a1.45,1.45,0,0,1-.63.13,2,2,0,0,1-.73-.15,1.76,1.76,0,0,1-.91-.73,1.73,1.73,0,0,1-.18-1.07,4.64,4.64,0,0,1,.34-1.3,7.79,7.79,0,0,1,.56-1.12,3.1,3.1,0,0,1,.69-.81,1.76,1.76,0,0,1,.87-.36A2,2,0,0,1,85,183.61Z" transform="translate(-9.79 -9.79)"/><path d="M79.05,181l-3.31,6.44a.88.88,0,0,1,.25.05l.51.15.51.15.23.07-.4.77-.43-.09a4.52,4.52,0,0,0-.53-.06,2.53,2.53,0,0,0-.55,0,1.81,1.81,0,0,0-.53.15l-.78-.39,4-7.79Z" transform="translate(-9.79 -9.79)"/><path d="M74.68,178.64l-.43.7-3.74,1.73-.77.37a3.25,3.25,0,0,0-.67.41,2.54,2.54,0,0,0-.58.66,2,2,0,0,0-.34.9.69.69,0,0,0,.39.66.83.83,0,0,0,.66.15,1.2,1.2,0,0,0,.58-.34,3.56,3.56,0,0,0,.5-.62l.15-.24,1,.62-.16.25a3.91,3.91,0,0,1-.91,1,1.73,1.73,0,0,1-1,.38,2.15,2.15,0,0,1-1.22-.4,2,2,0,0,1-1-1.35,2.55,2.55,0,0,1,.45-1.68,3.56,3.56,0,0,1,.64-.76,4.68,4.68,0,0,1,.72-.47l.81-.39L73,178.73l-2.34-1.47.52-.83Z" transform="translate(-9.79 -9.79)"/><path d="M66.87,176.82l-.53.69-1.92-1.45.53-.7Z" transform="translate(-9.79 -9.79)"/><path d="M64.13,171.05,60,175.73l-.87-.76.58-.66a2,2,0,0,1-1,.11,1.28,1.28,0,0,1-.65-.31l-.06-.05-.07-.08.84-.95a2.63,2.63,0,0,0,.16.26,1.48,1.48,0,0,0,.24.26,1,1,0,0,0,.45.23,1.4,1.4,0,0,0,.64-.07l3-3.42Z" transform="translate(-9.79 -9.79)"/><path d="M59.08,166.19a1.63,1.63,0,0,1,.52,1.22,2,2,0,0,1-.54,1.26l-.88-.49a2,2,0,0,0,.43-.83.69.69,0,0,0-.2-.64.59.59,0,0,0-.46-.21.63.63,0,0,0-.46.22,1,1,0,0,0-.27.42,1.78,1.78,0,0,0,0,.59l.08,1.4a2.86,2.86,0,0,1-.06.83A1.89,1.89,0,0,1,56,171.19a1.4,1.4,0,0,1-.76,0,1.85,1.85,0,0,1-.72-.49,1.36,1.36,0,0,1-.45-1.15,2,2,0,0,1,.52-1.13l.75.35a2.9,2.9,0,0,0-.32.49.92.92,0,0,0-.1.43.54.54,0,0,0,.18.39.61.61,0,0,0,.45.19A.66.66,0,0,0,56,170a.64.64,0,0,0,.18-.27.81.81,0,0,0,0-.39l0-1.5c0-.2,0-.4,0-.61a2.2,2.2,0,0,1,.16-.61,1.85,1.85,0,0,1,.41-.59,1.76,1.76,0,0,1,.79-.46,1.37,1.37,0,0,1,.8.06A2.19,2.19,0,0,1,59.08,166.19Z" transform="translate(-9.79 -9.79)"/><path d="M55.21,161.89a1,1,0,0,1,.25.64,1.48,1.48,0,0,1-.14.68,1.59,1.59,0,0,1-.43.57,2.37,2.37,0,0,1-.88.47,2,2,0,0,1-.87,0,3.65,3.65,0,0,1-.87-.31l-.91-.47-.34.28a4,4,0,0,0-.46.43.72.72,0,0,0-.17.37.61.61,0,0,0,.16.4.62.62,0,0,0,.33.22.6.6,0,0,0,.37,0,1.37,1.37,0,0,0,.4-.25l.25-.2.69.92a2.33,2.33,0,0,1-1.48.6,1.83,1.83,0,0,1-1.27-.78,1.52,1.52,0,0,1-.45-1.34,2.4,2.4,0,0,1,.89-1.23l2.2-1.81.43-.37.36-.35.3-.31.68.81c-.08.09-.17.21-.29.34l-.33.36a1.61,1.61,0,0,1,.8-.11A1.1,1.1,0,0,1,55.21,161.89Zm-1.05.28a.64.64,0,0,0-.29-.19,1.28,1.28,0,0,0-.34-.06h-.26L51.91,163c.19.08.37.14.55.2a2.67,2.67,0,0,0,.51.12,1.47,1.47,0,0,0,.47,0,1.1,1.1,0,0,0,.44-.23,1.11,1.11,0,0,0,.37-.48A.48.48,0,0,0,54.16,162.17Z" transform="translate(-9.79 -9.79)"/><path d="M50.37,155.58l-1.94,1.31,1.42,2.1-1,.68-5.58,1-.76-1.13,4.45-3-.55-.81.85-.57.55.81,1.94-1.32Zm-2,3.07-.8-1.18-3.29,2.23Z" transform="translate(-9.79 -9.79)"/><path d="M46.78,149.45a2,2,0,0,1,.29,1.24,2,2,0,0,1-.47,1.07,3.42,3.42,0,0,1-1.05.83l-3.31,1.8a3.52,3.52,0,0,1-1.3.44,1.82,1.82,0,0,1-1.13-.19,2.19,2.19,0,0,1-.87-.93,2.12,2.12,0,0,1-.3-1.24,1.85,1.85,0,0,1,.46-1,3.45,3.45,0,0,1,1.07-.84l3.31-1.8a3.66,3.66,0,0,1,1.29-.44,2,2,0,0,1,1.14.19A2.13,2.13,0,0,1,46.78,149.45Zm-.83.46a.76.76,0,0,0-.51-.43,1.29,1.29,0,0,0-.67,0,3.23,3.23,0,0,0-.72.3l-3.33,1.81a4.09,4.09,0,0,0-.67.44,1.25,1.25,0,0,0-.39.54.82.82,0,0,0,.11.66.8.8,0,0,0,.5.45,1.11,1.11,0,0,0,.67,0,3.47,3.47,0,0,0,.73-.31L45,151.56a2.9,2.9,0,0,0,.64-.44,1.27,1.27,0,0,0,.39-.55A.82.82,0,0,0,46,149.91Z" transform="translate(-9.79 -9.79)"/><path d="M43.53,142.69a2.39,2.39,0,0,1,.22,1.16,1.69,1.69,0,0,1-.4,1,2.79,2.79,0,0,1-1,.7h0l0,0-.44-1.06a2,2,0,0,0,.81-.56.86.86,0,0,0,0-.87.74.74,0,0,0-.39-.42,1.1,1.1,0,0,0-.69-.06,4.32,4.32,0,0,0-1,.3l-1.22.52a1.22,1.22,0,0,1,.59.27,1.65,1.65,0,0,1,.46.67,1.84,1.84,0,0,1,.14,1.17,1.72,1.72,0,0,1-.59.87,5.12,5.12,0,0,1-2.57,1,2.13,2.13,0,0,1-1.21-.25,2,2,0,0,1-.84-1,1.93,1.93,0,0,1-.12-1.28,2.25,2.25,0,0,1,.68-1,4.56,4.56,0,0,1,1.25-.77l2.71-1.13a5.63,5.63,0,0,1,1.51-.42,2.35,2.35,0,0,1,1.31.16A1.84,1.84,0,0,1,43.53,142.69Zm-4.08,1.71a1,1,0,0,0-.41-.5,1.45,1.45,0,0,0-.53-.18l-1.19.5a3.57,3.57,0,0,0-.73.4,1.2,1.2,0,0,0-.43.51.8.8,0,0,0,0,.64.83.83,0,0,0,.44.46,1.24,1.24,0,0,0,.67.06,2.94,2.94,0,0,0,.76-.22,7.05,7.05,0,0,0,.87-.42,1.25,1.25,0,0,0,.55-.51A.84.84,0,0,0,39.45,144.4Z" transform="translate(-9.79 -9.79)"/><path d="M41,135.54a1.84,1.84,0,0,1,0,1.29,2.19,2.19,0,0,1-.78,1,4.69,4.69,0,0,1-1.33.64L36,139.3a5.49,5.49,0,0,1-1.54.27,2.28,2.28,0,0,1-1.27-.3,1.88,1.88,0,0,1-.78-1.11,2.46,2.46,0,0,1-.1-1.18,1.76,1.76,0,0,1,.48-.9,2.45,2.45,0,0,1,1-.59l.05,0,.07,0,.34,1.12a1.78,1.78,0,0,0-.87.48.84.84,0,0,0-.09.84.81.81,0,0,0,.35.46,1.25,1.25,0,0,0,.68.14,4.12,4.12,0,0,0,1-.2l1.27-.39a1.3,1.3,0,0,1-.57-.34,1.73,1.73,0,0,1-.38-.7,1.79,1.79,0,0,1,0-1.18,1.73,1.73,0,0,1,.67-.81,4.69,4.69,0,0,1,1.23-.56,4.63,4.63,0,0,1,1.43-.21,2.12,2.12,0,0,1,1.19.36A1.89,1.89,0,0,1,41,135.54Zm-.92.28a.77.77,0,0,0-.39-.51,1.33,1.33,0,0,0-.65-.12,2.89,2.89,0,0,0-.79.15c-.33.1-.63.21-.91.32a1.44,1.44,0,0,0-.6.45.86.86,0,0,0,0,.75,1.22,1.22,0,0,0,.21.39,1.48,1.48,0,0,0,.31.26,1.81,1.81,0,0,0,.34.13l1.25-.38a3.78,3.78,0,0,0,.76-.33,1.35,1.35,0,0,0,.48-.47A.82.82,0,0,0,40,135.82Z" transform="translate(-9.79 -9.79)"/><path d="M38.45,124.45A1.33,1.33,0,0,1,38,125.7a3.65,3.65,0,0,1-1.89.66l-1.19.17a7.66,7.66,0,0,1-1.33.06,2,2,0,0,1-1-.3,1.27,1.27,0,0,1-.5-.91,1.17,1.17,0,0,1,.06-.59,1.89,1.89,0,0,1,.28-.5l-2.88.4-.16-1.14,8.66-1.23.16,1.15-.39,0a2.22,2.22,0,0,1,.41.4A1.14,1.14,0,0,1,38.45,124.45Zm-.94-.16a1.22,1.22,0,0,0-.11-.34,1.32,1.32,0,0,0-.23-.33l-4.05.57a1.92,1.92,0,0,0-.14.36.9.9,0,0,0,0,.4.53.53,0,0,0,.45.49,2.68,2.68,0,0,0,.94,0l1.74-.24a5.21,5.21,0,0,0,.77-.16,1.17,1.17,0,0,0,.51-.27A.53.53,0,0,0,37.51,124.29Z" transform="translate(-9.79 -9.79)"/><path d="M30.61,119.45l-1.21.08-.08-1.15,1.21-.08Zm7.15-.47-6.23.41-.07-1.15,6.23-.41Z" transform="translate(-9.79 -9.79)"/><path d="M39.49,112.89a3.92,3.92,0,0,1-.13,1,1.67,1.67,0,0,1-.39.71,1,1,0,0,1-.69.25,1.09,1.09,0,0,1-.52-.14,1.41,1.41,0,0,1-.39-.34,2.27,2.27,0,0,1-.27-.44.85.85,0,0,1-.28.45.64.64,0,0,1-.4.15,1,1,0,0,1-.59-.2,3.5,3.5,0,0,1-.53-.51,1.72,1.72,0,0,1-.7.52,2.89,2.89,0,0,1-1.17.17,3.25,3.25,0,0,1-1.22-.22,1.55,1.55,0,0,1-.74-.61,1.84,1.84,0,0,1-.24-1,1.67,1.67,0,0,1,.19-.81,1.09,1.09,0,0,1,.53-.46,2,2,0,0,1-.3-.3,2.32,2.32,0,0,1-.34-.55l-.07-.18.75-.28a2,2,0,0,0,.09.38c.06.15.11.3.16.43a.75.75,0,0,0,.13.26,2.71,2.71,0,0,1,.53-.13,5,5,0,0,1,.62,0,3.75,3.75,0,0,1,1.12.18,1.57,1.57,0,0,1,.75.55,1.68,1.68,0,0,1,.26,1,1.71,1.71,0,0,1,0,.31,1.36,1.36,0,0,1-.06.29l.23.14a.59.59,0,0,0,.25.07.22.22,0,0,0,.19-.12,1,1,0,0,0,.1-.39l.1-1a1.65,1.65,0,0,1,.46-1.09,1.75,1.75,0,0,1,1.94-.09,1.47,1.47,0,0,1,.51.73A3.6,3.6,0,0,1,39.49,112.89Zm-4.65-.11a.73.73,0,0,0-.09-.39.49.49,0,0,0-.26-.23,1.57,1.57,0,0,0-.44-.11l-.58,0-.59,0a2.23,2.23,0,0,0-.45.09.59.59,0,0,0-.29.21.76.76,0,0,0-.11.4.78.78,0,0,0,.09.39.62.62,0,0,0,.27.24,1.65,1.65,0,0,0,.45.11,5,5,0,0,0,.61,0l.54,0a1.68,1.68,0,0,0,.44-.1.86.86,0,0,0,.3-.23A.67.67,0,0,0,34.84,112.78Zm3.75,0a2.13,2.13,0,0,0-.13-.91.49.49,0,0,0-.47-.3.73.73,0,0,0-.32.06.47.47,0,0,0-.21.26,2.11,2.11,0,0,0-.12.52l-.1,1c.08.08.15.16.23.23a.83.83,0,0,0,.25.18.59.59,0,0,0,.29.07.44.44,0,0,0,.42-.23A1.82,1.82,0,0,0,38.59,112.79Z" transform="translate(-9.79 -9.79)"/><path d="M30.63,107l-1.21-.1.1-1.15,1.21.1Zm7.15.6-6.22-.52.09-1.15,6.22.52Z" transform="translate(-9.79 -9.79)"/><path d="M38.58,101.45a1.52,1.52,0,0,1-.3.75,1.05,1.05,0,0,1-.58.35,2.11,2.11,0,0,1-.8,0l-4-.61-.1.65L32,102.5l.1-.65-1.81-.28.18-1.14,1.8.27.15-1,.76.11-.15,1,4,.59a.83.83,0,0,0,.54,0,.53.53,0,0,0,.22-.42c0-.06,0-.13,0-.2s0-.15,0-.22l.84.12c0,.15,0,.28,0,.4A2.85,2.85,0,0,1,38.58,101.45Z" transform="translate(-9.79 -9.79)"/><path d="M39.5,96.63a1,1,0,0,1-.35.58,1.56,1.56,0,0,1-1.34.31,2.19,2.19,0,0,1-.91-.41,2,2,0,0,1-.54-.68,3.7,3.7,0,0,1-.29-.87c-.06-.33-.12-.66-.17-1l-.43-.11a4.87,4.87,0,0,0-.62-.1.66.66,0,0,0-.41.09.58.58,0,0,0-.21.37.67.67,0,0,0,0,.4.59.59,0,0,0,.25.27,1.62,1.62,0,0,0,.44.17l.31.07L35,96.82A2.26,2.26,0,0,1,33.57,96a1.81,1.81,0,0,1-.16-1.48,1.55,1.55,0,0,1,.79-1.17,2.4,2.4,0,0,1,1.52,0L38.5,94l.55.11.5.07.43,0-.24,1-.44,0-.49,0a1.72,1.72,0,0,1,.58.56A1.1,1.1,0,0,1,39.5,96.63ZM38.64,96a.53.53,0,0,0,0-.33,1.2,1.2,0,0,0-.16-.32,1.45,1.45,0,0,0-.15-.2l-1.73-.4.18.56a2.67,2.67,0,0,0,.22.48,1.31,1.31,0,0,0,.3.36,1.34,1.34,0,0,0,.45.21,1.13,1.13,0,0,0,.61,0A.44.44,0,0,0,38.64,96Z" transform="translate(-9.79 -9.79)"/><path d="M40.88,91.11l-8.34-2.63.35-1.1L41.23,90Z" transform="translate(-9.79 -9.79)"/><path d="M42.37,86.74l-8.16-3.13.41-1.08,8.17,3.13Z" transform="translate(-9.79 -9.79)"/><path d="M45.44,83.33l-.8-.38a4.7,4.7,0,0,0,.25-.62.56.56,0,0,0,0-.38.38.38,0,0,0-.21-.22,2.39,2.39,0,0,0-.42-.12l-.72-.15-5.34-1.13.5-1L43.3,80.5l-3.88-2.72.5-1,5.33,4.15a1.36,1.36,0,0,1,.49.62,1.52,1.52,0,0,1,.07.77,3.38,3.38,0,0,1-.31.93Z" transform="translate(-9.79 -9.79)"/><path d="M50.1,71.77a1.64,1.64,0,0,1-1.08.76,2,2,0,0,1-1.35-.26l.28-1a2.28,2.28,0,0,0,.91.25.71.71,0,0,0,.58-.34.64.64,0,0,0,.11-.5.69.69,0,0,0-.31-.4,1.07,1.07,0,0,0-.47-.17,1.92,1.92,0,0,0-.59.08l-1.35.39a2.61,2.61,0,0,1-.82.11,1.52,1.52,0,0,1-.87-.31,1.57,1.57,0,0,1-.59-.62,1.32,1.32,0,0,1-.13-.76,2,2,0,0,1,.32-.8,1.37,1.37,0,0,1,1-.69,2,2,0,0,1,1.21.26l-.18.81a3.1,3.1,0,0,0-.55-.2.94.94,0,0,0-.44,0,.59.59,0,0,0-.33.26.53.53,0,0,0-.09.48.63.63,0,0,0,.28.38.79.79,0,0,0,.3.12.94.94,0,0,0,.4,0l1.45-.36q.3-.08.6-.12a2.31,2.31,0,0,1,.64,0,1.89,1.89,0,0,1,1.27.94,1.37,1.37,0,0,1,.12.8A2.3,2.3,0,0,1,50.1,71.77Z" transform="translate(-9.79 -9.79)"/><path d="M47.09,63.44l-1-.74.71-.92,1,.74Zm5.7,4.36-5-3.8.7-.92,5,3.8Z" transform="translate(-9.79 -9.79)"/><path d="M58.11,64.35a4.28,4.28,0,0,1-.76.68,1.65,1.65,0,0,1-.76.28.93.93,0,0,1-.68-.26,1.18,1.18,0,0,1-.31-.45,1.29,1.29,0,0,1-.07-.51,2.09,2.09,0,0,1,.08-.51.89.89,0,0,1-.51.16.62.62,0,0,1-.39-.15,1,1,0,0,1-.32-.53,3.88,3.88,0,0,1-.07-.74,1.72,1.72,0,0,1-.87-.06,3.1,3.1,0,0,1-1-.64,3.43,3.43,0,0,1-.78-1,1.59,1.59,0,0,1-.16-.94,1.76,1.76,0,0,1,.45-.89,1.65,1.65,0,0,1,.68-.5,1.09,1.09,0,0,1,.69,0,3.32,3.32,0,0,1,0-.42,2,2,0,0,1,.1-.64l.06-.18.75.28a1.76,1.76,0,0,0-.17.34l-.17.43a1,1,0,0,0-.07.28,3.25,3.25,0,0,1,.49.25,4.65,4.65,0,0,1,.5.37,3.38,3.38,0,0,1,.73.87,1.47,1.47,0,0,1,.21.9,1.74,1.74,0,0,1-.48,1A1.49,1.49,0,0,1,55,62l-.23.18.08.25a.49.49,0,0,0,.14.22.21.21,0,0,0,.22,0,1,1,0,0,0,.33-.23l.71-.67a1.63,1.63,0,0,1,1.06-.52,1.76,1.76,0,0,1,1.53,1.2,1.4,1.4,0,0,1-.09.89A3.75,3.75,0,0,1,58.11,64.35Zm-3.45-3.12a.79.79,0,0,0,.19-.36.58.58,0,0,0-.05-.34,1.57,1.57,0,0,0-.26-.37,5.52,5.52,0,0,0-.42-.41,4.66,4.66,0,0,0-.46-.37,1.51,1.51,0,0,0-.4-.23.57.57,0,0,0-.36,0,.74.74,0,0,0-.33.23.7.7,0,0,0-.19.36.57.57,0,0,0,0,.36,1.48,1.48,0,0,0,.26.37,5.79,5.79,0,0,0,.43.43c.15.13.29.24.43.34a1.29,1.29,0,0,0,.4.21.59.59,0,0,0,.37,0A.66.66,0,0,0,54.66,61.23Zm2.83,2.45a2.27,2.27,0,0,0,.5-.77.5.5,0,0,0-.16-.53.63.63,0,0,0-.29-.17.48.48,0,0,0-.32.06,1.47,1.47,0,0,0-.43.32l-.72.67a3.25,3.25,0,0,0,0,.33,1,1,0,0,0,.08.3.66.66,0,0,0,.17.24.46.46,0,0,0,.47.1A1.78,1.78,0,0,0,57.49,63.68Z" transform="translate(-9.79 -9.79)"/><path d="M60.22,59.29,56,54.74l.84-.79.43.45a3,3,0,0,1,.16-.84,1.67,1.67,0,0,1,.47-.72.79.79,0,0,1,.55-.25,1.06,1.06,0,0,1,.54.16,2.12,2.12,0,0,1,.46.38l3.46,3.69-.84.79-3.23-3.45a1.21,1.21,0,0,0-.43-.31A.4.4,0,0,0,58,54a.81.81,0,0,0-.22.36,2.4,2.4,0,0,0-.11.48l3.44,3.67Z" transform="translate(-9.79 -9.79)"/><path d="M66.7,53.74a1.93,1.93,0,0,1-1.07.48,1.5,1.5,0,0,1-1-.32,5,5,0,0,1-1-1l-.88-1.12a4.72,4.72,0,0,1-.73-1.19,1.52,1.52,0,0,1-.07-1,2,2,0,0,1,.71-.91,1.74,1.74,0,0,1,1.11-.47,1.61,1.61,0,0,1,1,.44,8.19,8.19,0,0,1,1,1.07l.32.4-1.94,1.52.77,1a2.27,2.27,0,0,0,.44.44.62.62,0,0,0,.39.14.72.72,0,0,0,.39-.16.56.56,0,0,0,.24-.35.64.64,0,0,0-.08-.39,3,3,0,0,0-.3-.46l-.23-.3.88-.69.15.19a2.45,2.45,0,0,1,.6,1.41A1.59,1.59,0,0,1,66.7,53.74Zm-2.9-2.57,1-.82-.35-.44a3.18,3.18,0,0,0-.44-.49.67.67,0,0,0-.38-.2.55.55,0,0,0-.42.15.67.67,0,0,0-.26.37.78.78,0,0,0,.12.47,4.42,4.42,0,0,0,.48.7Z" transform="translate(-9.79 -9.79)"/><path d="M71.86,50a1.31,1.31,0,0,1-1.3.15,3.64,3.64,0,0,1-1.4-1.43l-.66-1a7.07,7.07,0,0,1-.62-1.18,2.06,2.06,0,0,1-.16-1.06,1.26,1.26,0,0,1,.61-.84,1.29,1.29,0,0,1,.56-.19,1.87,1.87,0,0,1,.58,0l-1.59-2.44,1-.63,4.77,7.34-1,.63-.22-.34a1.56,1.56,0,0,1-.18.54A1.29,1.29,0,0,1,71.86,50Zm-.25-.92a1.42,1.42,0,0,0,.26-.24,1.71,1.71,0,0,0,.21-.35L69.84,45.1a1.64,1.64,0,0,0-.38,0,1,1,0,0,0-.38.15.54.54,0,0,0-.24.62,2.83,2.83,0,0,0,.38.85l1,1.47a7.38,7.38,0,0,0,.47.63,1.23,1.23,0,0,0,.47.36A.55.55,0,0,0,71.61,49.12Z" transform="translate(-9.79 -9.79)"/><path d="M80.58,41.76a1.24,1.24,0,0,1-.66.13,1.07,1.07,0,0,1-.56-.23,1.58,1.58,0,0,1-.42-.55,1.55,1.55,0,0,1-.14-.67,1.05,1.05,0,0,1,.19-.57,1.52,1.52,0,0,1,1.21-.56,1,1,0,0,1,.56.23,1.45,1.45,0,0,1,.41.55,1.41,1.41,0,0,1,.15.67,1.08,1.08,0,0,1-.19.58A1.28,1.28,0,0,1,80.58,41.76Z" transform="translate(-9.79 -9.79)"/><path d="M60.23,125.19v-24.3h5.82a12.82,12.82,0,0,1,4.15.58,4.78,4.78,0,0,1,2.58,2,7.18,7.18,0,0,1,.89,3.84A11.78,11.78,0,0,1,73.4,110a5,5,0,0,1-.92,2,4.12,4.12,0,0,1-1.78,1.28l3.39,12H69.65l-2.94-11.13h-2v11.13Zm4.44-13.92h1.38a4.69,4.69,0,0,0,2-.38,2.2,2.2,0,0,0,1.1-1.2,5.73,5.73,0,0,0,.33-2.11,4.62,4.62,0,0,0-.68-2.75,3,3,0,0,0-2.56-.91H64.67Z" transform="translate(-9.79 -9.79)"/><path d="M77,125.19v-24.3h3.09L86,114.75V100.89h3.66v24.3H86.72l-5.94-14.52v14.52Z" transform="translate(-9.79 -9.79)"/><path d="M93.35,125.19v-24.3h5.73a10.77,10.77,0,0,1,4.63.81,4.72,4.72,0,0,1,2.37,2.49,11.08,11.08,0,0,1,.71,4.26v8.88a11.83,11.83,0,0,1-.71,4.39,4.91,4.91,0,0,1-2.34,2.61,9.75,9.75,0,0,1-4.48.86Zm4.44-3.09h1.35a3.48,3.48,0,0,0,2.19-.54,2.4,2.4,0,0,0,.81-1.58,18,18,0,0,0,.15-2.53v-9.3a10.8,10.8,0,0,0-.21-2.37,2,2,0,0,0-.87-1.32,4.11,4.11,0,0,0-2.13-.42H97.79Z" transform="translate(-9.79 -9.79)"/><path d="M110,125.19l.42-24.3H115l3.45,16.83,3.6-16.83h4.44l.45,24.3h-3.3l-.36-16.89-3.45,16.89h-2.67l-3.51-17-.33,17Z" transform="translate(-9.79 -9.79)"/><path d="M130,125.19v-4.11h4v4.11Z" transform="translate(-9.79 -9.79)"/><path d="M136.88,125.19v-24.3H140l5.91,13.86V100.89h3.66v24.3H146.6l-5.94-14.52v14.52Z" transform="translate(-9.79 -9.79)"/><path d="M159.89,125.52a7.62,7.62,0,0,1-4.21-1,5,5,0,0,1-2.06-2.82,14.5,14.5,0,0,1-.57-4.38V100.89h4.32v17a13.23,13.23,0,0,0,.15,2.14,2.94,2.94,0,0,0,.7,1.62,2.13,2.13,0,0,0,1.67.62,2.1,2.1,0,0,0,1.69-.62,3.25,3.25,0,0,0,.69-1.62,13.2,13.2,0,0,0,.16-2.14v-17h4.3v16.44a14.8,14.8,0,0,1-.58,4.38,5.08,5.08,0,0,1-2.05,2.82A7.58,7.58,0,0,1,159.89,125.52Z" transform="translate(-9.79 -9.79)"/></svg>